<svg width="14" height="14" viewBox="0 0 14 14" fill="none" xmlns="http://www.w3.org/2000/svg">
<rect width="14" height="14" rx="2" fill="#FF6F00"/>
<path d="M4.38428 4.625C4.33187 5.28809 4.30566 5.92155 4.30566 6.52539C4.30566 6.6849 4.31022 6.882 4.31934 7.1167C4.32845 7.3514 4.33301 7.5485 4.33301 7.70801C4.33301 7.9222 4.35124 8.17969 4.3877 8.48047C4.42415 8.78125 4.37402 8.95329 4.2373 8.99658C4.08691 8.99658 3.86133 9.01709 3.56055 9.05811C3.26204 9.1014 3.25977 8.87126 3.55371 8.36768C3.5765 8.11702 3.58789 7.87321 3.58789 7.63623C3.5765 7.27165 3.56055 6.99251 3.54004 6.79883C3.51953 6.60514 3.50928 6.36019 3.50928 6.06396C3.50928 5.76546 3.45915 5.41227 3.35889 5.00439C3.15381 4.32992 3.3099 3.95964 3.82715 3.89355C4.41048 3.6748 4.59619 3.91862 4.38428 4.625ZM5.77197 3.90381C5.76742 4.09749 5.71273 4.45524 5.60791 4.97705C5.54867 5.19352 5.46891 5.31087 5.36865 5.3291C5.26839 5.34733 5.1613 5.33252 5.04736 5.28467C4.93571 5.23454 4.8833 5.13883 4.89014 4.99756C4.89697 4.854 4.90723 4.7207 4.9209 4.59766C4.93685 4.47233 4.98584 4.25814 5.06787 3.95508C5.1499 3.64974 5.25814 3.50846 5.39258 3.53125C5.5293 3.55404 5.62956 3.59505 5.69336 3.6543C5.75944 3.71354 5.78564 3.79671 5.77197 3.90381ZM10.2871 9.3623C9.94303 9.38053 9.76758 9.33838 9.76074 9.23584C9.73796 9.05583 9.7277 8.72884 9.72998 8.25488L9.78467 7.00049C9.89404 6.49919 9.79834 6.28385 9.49756 6.35449C9.28792 6.40462 9.16032 6.52197 9.11475 6.70654C9.07145 6.88883 9.0612 7.08594 9.08398 7.29785C9.16829 7.95182 9.16715 8.44857 9.08057 8.78809C9.06462 9.09115 8.84245 9.21989 8.41406 9.17432C8.22949 9.17432 8.09505 9.15039 8.01074 9.10254C7.92643 9.05469 7.89909 8.9681 7.92871 8.84277C7.96061 8.71517 7.98796 8.48503 8.01074 8.15234C8.03581 7.81966 8.03809 7.47673 8.01758 7.12354C7.9834 6.87288 7.79655 6.71908 7.45703 6.66211C7.24967 6.6849 7.1346 6.79655 7.11182 6.99707C7.08903 7.19759 7.08447 7.42887 7.09814 7.69092C7.1141 7.95296 7.12777 8.17057 7.13916 8.34375C7.15283 8.51693 7.15055 8.70605 7.13232 8.91113C7.11637 9.11621 7.08675 9.22673 7.04346 9.24268C7.00016 9.25863 6.89193 9.2666 6.71875 9.2666C6.36556 9.32812 6.20378 9.15609 6.2334 8.75049C6.2653 8.34489 6.27783 7.98828 6.271 7.68066C6.26416 7.37305 6.26302 7.06999 6.26758 6.77148C6.27441 6.47298 6.25163 6.21436 6.19922 5.99561C6.11035 5.3986 6.2653 5.10465 6.66406 5.11377C6.95573 5.09554 7.12435 5.28011 7.16992 5.66748C7.39323 5.42822 7.69857 5.32227 8.08594 5.34961C8.47331 5.37467 8.72054 5.47266 8.82764 5.64355C9.1307 5.48633 9.44401 5.37695 9.76758 5.31543C10.4102 5.35189 10.744 5.58773 10.769 6.02295C10.8237 6.12321 10.8306 6.46615 10.7896 7.05176C10.7394 7.81055 10.7201 8.39502 10.7314 8.80518C10.7451 9.21305 10.597 9.39876 10.2871 9.3623Z" fill="white"/>
</svg>
