<svg width="547" height="308" viewBox="0 0 547 308" fill="none" xmlns="http://www.w3.org/2000/svg">
<mask id="path-1-inside-1" fill="white">
<path d="M494.572 12.1894C496.587 6.22578 502.018 2.9105 507.227 0C507.905 3.14164 508.553 6.28557 509.099 9.45251C512.01 10.6519 514.909 11.9168 517.92 12.8782C516.511 15.0826 514.85 17.1146 513.14 19.0833C510.593 22.0099 510.219 21.9938 506.519 21.4774C504.352 21.1784 504.337 24.8916 503.87 26.7235C504.003 28.76 503.171 29.2142 501.367 28.0758C499.353 27.6101 497.334 27.1593 495.32 26.6855C496.372 28.5001 498.078 29.7237 500.039 30.3964C503.447 31.5693 503.277 31.6188 504.477 35.2928C505.649 38.8335 506.238 39.1371 503.576 41.6911C502.052 43.1596 500.628 44.8373 500.179 46.9636C503.097 44.9454 506.178 41.7854 509.746 42.1695C513.993 42.6329 518.271 42.5995 522.532 42.6674C522.515 45.3778 520.798 47.5397 519.207 49.567C517.191 52.1417 518.735 57.8316 519.087 61.0112C519.924 68.4697 521.442 75.9363 524.624 82.7807C520.582 83.0533 518.591 82.2472 517.269 86.5008C516.2 89.9426 516.027 93.6051 516.721 97.1366C515.501 96.158 514.281 95.1771 513.06 94.1985C513.507 95.8567 513.963 97.5092 514.43 99.1651C514.982 101.137 511.877 100.795 511.6 103.181C511.217 106.527 514.408 109.725 516.026 112.349C517.105 109.405 517.891 106.371 518.956 103.423C519.062 105.452 519.172 107.484 519.265 109.512C519.399 112.337 518.406 112.003 516.05 113.033C517.014 114.878 518.273 116.553 519.747 118.025C520.991 116.966 522.247 115.92 523.505 114.88C525.428 119.808 530.779 120.8 535.311 122.06C533.568 123.799 529.678 125.954 531.618 128.122C533.917 130.695 537.054 132.281 539.744 134.387C536.783 139.353 537.619 145.785 543.365 148.199C542.669 149.523 541.974 150.851 541.277 152.178C540.23 154.167 542.62 156.123 543.57 158.09C545.714 162.535 546.66 167.457 547 172.352C538.767 166.703 530.162 161.59 522.307 155.417C518.967 152.791 515.148 150.02 512.958 146.305C511.799 144.342 511.01 142.186 510.345 140.011C509.493 137.182 509.6 136.734 506.725 135.887C508.768 131.77 510.404 129.731 509.009 125.212C507.609 120.683 505.989 116.207 505.05 111.555C504.256 107.577 505.876 100.646 503.31 98.0048C501.77 96.4213 500.205 94.8586 498.645 93.297C496.527 91.1788 497.436 90.3727 498.087 87.6669C496.635 88.9272 495.249 90.2726 493.898 91.6399C498.087 95.2415 497.979 100.846 498.843 105.845C499.423 109.228 500.897 109.846 497.657 111.674C496.394 110.191 493.712 105.51 491.936 106.552C489.341 108.074 488.438 108.9 487.001 111.62C485.058 115.299 486.003 117.094 486.838 121.097C487.575 124.628 488.182 128.182 488.846 131.73C489.389 134.668 489.539 133.816 492.078 133.457C493.554 133.248 495.044 133.045 496.522 132.828C494.771 134.513 492.99 136.168 491.295 137.917C489.916 140.934 488.084 143.738 485.868 146.209C485.184 144.539 484.499 142.867 483.797 141.203C481.881 142.205 479.96 143.197 478.041 144.189C475.554 145.466 476.134 145.377 476.335 147.852C476.527 150.242 477.105 150.228 474.751 151.441C472.963 152.361 471.194 153.31 469.41 154.24C469.84 157.054 465.783 157.522 463.608 159.207C461.126 161.128 459.028 163.688 458.298 166.777C456.741 173.317 456.499 180.74 455.66 187.423C454.636 195.576 453.677 203.864 450.411 211.488C452.236 210.852 455.26 210.955 456.596 209.365C457.521 208.267 456.364 206.755 455.658 205.932C457.618 204.503 459.533 203.019 461.532 201.635C461.652 204.125 461.797 206.612 461.976 209.098C460.213 207.956 458.377 207.124 456.473 206.239C457.165 208.007 458.415 209.485 459.619 210.922C461.543 213.216 464.252 212.274 467.139 212.829C467.239 210.215 467.283 207.595 467.3 204.979C470.347 203.955 473.567 204.31 476.613 205.126C480.417 206.143 481.323 207.832 483.736 210.778C486.184 213.764 485.686 214.769 486.376 218.339C487.316 223.254 490.527 227.283 493.072 231.454C496.551 237.18 496.228 242.457 496.514 248.993C497.058 261.32 496.121 273.8 493.626 285.906C492.723 290.301 490.225 296.044 485.443 297.417C483.05 298.098 480.528 297.577 478.089 297.695C477.3 301.183 476.228 304.593 475.163 308C472.291 303.978 474.971 298.454 472.627 293.947C471.463 291.715 470.091 289.601 468.741 287.478C469.722 285.242 471.496 283.56 473.694 282.53C476.188 281.356 477.995 282.368 477.696 279.165C477.438 276.425 477.08 273.698 476.657 270.977C475.707 264.852 474.447 258.791 473.339 252.697C470.78 255.665 468.707 259.004 466.282 262.078C464.915 263.822 463.425 265.482 461.704 266.893C458.792 269.29 458.702 268.559 456.427 265.875C455.191 264.418 453.96 262.959 452.733 261.495C449.942 261.149 447.139 260.92 444.323 260.981C439.977 261.077 435.749 262.39 433 258.021C429.239 252.032 424.77 245.296 417.903 242.587C409.757 239.373 400.286 244.656 394.31 250.102C402.324 256.515 392.779 266.861 397.337 274.578C395.18 276.444 393.025 278.31 390.995 280.314C388.182 278.855 385.021 278.53 381.904 278.401C378.807 278.276 375.655 278.281 372.666 277.359C370.712 279.675 368.614 281.883 366.308 283.856C361.614 287.871 357.448 290.186 351.188 289.431C344.522 288.625 339.177 284.445 332.845 283.33C328.667 282.593 320.176 287.149 317.165 284.727C315.304 283.234 314.336 280.992 313.339 278.902C311.878 275.82 309.684 275.338 306.563 274.172C304.104 273.253 301.632 272.382 299.236 271.304C296.207 269.945 293.956 274.146 292.137 276.647C291.829 280.135 294.995 283.799 292.161 286.143C289.129 288.648 288.647 288.603 284.898 287.913C280.801 287.158 276.271 286.15 273.776 282.474C272.333 280.349 269.659 280.965 267.103 280.82C263.737 279.239 261.94 279.437 258.517 280.685C253.092 282.669 247.935 285.317 242.444 287.135C241.226 287.544 239.986 287.9 238.736 288.206C237.353 286.624 235.949 285.063 234.57 283.482C232.496 283.915 230.205 283.779 228.554 282.307C227.243 281.137 226.591 279.426 226.277 277.739C224.802 275.009 223.568 272.143 221.912 269.51C219.419 268.259 216.576 269.432 214.059 269.878C211.304 270.365 210.117 265.038 209.071 262.774C207.331 264.453 205.616 266.142 203.907 267.845C203.486 257.608 203.544 246.348 196.877 237.873C198.36 236.826 199.843 235.779 201.324 234.729C195.051 235.841 188.709 237.601 182.286 236.657C182.853 235.173 183.406 233.679 183.973 232.194C181.236 230.549 178.493 228.904 175.598 227.533C176.264 224.779 176.939 222.032 177.61 219.275C174.515 217.646 171.626 215.355 168.113 215.442C162.138 215.591 155.863 213.906 150.073 212.596C144.375 211.305 139.003 208.957 133.599 206.804C133.948 209.993 134.395 213.174 134.919 216.338C132.869 214.831 130.809 213.348 128.742 211.871C128.577 213.767 128.449 215.657 128.312 217.553C126.286 217.338 124.263 217.103 122.238 216.863C123.111 220.1 124.03 223.321 124.982 226.535C120.624 227.205 119.383 226.909 115.721 224.406C114.285 223.426 112.895 222.304 111.93 220.836C110.993 219.396 111.234 217.287 109.861 216.326C105.998 213.619 97.4264 214.724 97.1418 208.427C96.0275 208.834 94.9248 209.279 93.8105 209.684C94.9328 206.105 94.6321 202.272 93.1237 198.855C91.5278 195.237 88.5815 194.502 85.7561 191.995C83.2245 189.747 78.0634 190.454 74.731 190.412C71.5669 190.369 69.54 193.446 67.3138 195.57C67.5823 192.777 67.8347 189.985 68.1054 187.194C66.3378 187.601 64.5771 188.061 62.8245 188.529C60.6075 189.125 60.6756 189.945 59.0935 191.423C57.9711 192.469 56.6345 193.275 55.2057 193.828C52.6003 194.832 53.0682 198.183 52.6004 200.824C54.8289 202.578 55.564 205.583 54.7632 208.25C54.3657 209.563 53.6144 210.769 52.5773 211.683C50.6922 213.335 53.1903 215.567 54.3668 217.635C48.5144 216.173 42.4373 214.021 36.3267 215.208C32.924 215.873 32.2488 216.031 32.7258 219.298C33.2305 222.71 31.8582 223.66 29.6688 226.275C27.597 228.748 27.1315 230.044 26.6233 233.261C26.4021 234.672 26.1866 236.084 25.9746 237.498C25.4987 240.65 24.661 239.542 21.8829 239.389C18.6865 239.216 18.0412 239.669 17.4593 236.376C17.0249 233.91 16.9004 231.405 16.7161 228.908C16.3992 224.647 15.9083 220.065 13.0748 216.635C11.2819 214.47 10.8913 213.826 10.0432 211.053C9.18127 208.216 7.89419 205.539 6.53795 202.909C3.90384 197.817 1.3239 193.222 0.674011 187.451C-0.0438594 181.163 -0.092242 174.82 0.0898183 168.496C0.937897 169.495 1.77098 170.506 2.59025 171.53C4.35439 173.72 5.24511 172.929 7.91033 172.719C12.3247 172.368 12.0873 172.246 12.6312 167.995C15.2227 169.799 17.843 171.576 20.4517 173.365C19.4216 171.088 18.3926 168.81 17.3636 166.532C20.1487 167.313 22.9073 168.212 25.6232 169.208C28.6491 170.32 29.8175 168.362 32.3318 166.613C34.4589 165.129 37.3315 164.451 36.5745 161.746C35.9591 159.548 35.5397 157.305 35.02 155.086C34.5073 152.889 33.8885 150.703 32.8825 148.684C32.0114 146.935 29.7207 145.062 29.9961 142.962C30.2599 140.956 32.0379 139.385 33.4391 138.1C32.682 136.402 31.91 134.704 31.1391 133.011C33.1614 132.589 34.687 131.246 35.8865 129.644C37.903 126.96 37.3015 126.853 35.0719 124.513C33.4137 122.766 31.7487 121.03 30.2058 119.177C32.0299 117.033 34.059 115.072 36.0363 113.077C37.7682 114.969 38.6002 118.466 41.7678 118.325C42.8336 116.223 43.1597 113.869 43.4005 111.553C43.7416 108.237 44.3224 107.569 46.8401 105.333C48.3773 103.967 49.9109 102.588 51.2983 101.067C50.736 98.4234 50.1264 95.7912 49.4523 93.1774C48.3865 89.018 55.7761 83.749 58.7754 81.011C60.1916 82.7739 60.1121 83.8663 62.1309 82.2667C63.9999 80.7822 65.9956 79.4482 68.1504 78.4121C70.584 77.2438 72.5337 76.0111 74.6688 77.9407C76.592 79.6794 78.4357 81.5009 80.4164 83.1625C79.4865 80.3302 78.4091 78.1729 79.1604 75.2636C79.7331 73.0327 79.0832 72.9327 81.8406 73.4306C83.9608 73.8101 86.0729 74.2218 88.1954 74.5851C91.5071 75.1601 96.9367 76.7528 100.187 75.4959C102.839 74.4713 102.4 70.6811 103.202 68.5008C109.267 63.2145 116.591 59.5152 122.28 53.7804C124.34 51.7002 127.079 52.1325 129.542 50.5479C130.526 49.9132 131.302 49.0312 131.742 47.9376C132.941 44.9282 132.658 44.9558 135.994 43.439C139.441 41.8808 144.408 46.0988 147.678 47.8364C147.457 49.5682 146.526 51.1298 146.474 52.8984C146.406 55.2696 147.998 57.8593 148.372 60.2362C148.99 64.1126 148.817 68.0592 148.641 71.9598C148.507 75.0509 149.241 79.0929 146.902 81.5664C143.899 84.7414 137.862 84.4045 135 81.2192C130.168 75.8558 130.323 66.2228 130.039 59.5117C129.086 61.7518 128.261 64.0436 127.595 66.3815C127.258 67.5533 126.963 68.7423 126.71 69.9371C126.179 72.4325 124.97 72.6751 122.933 74.1252C119.506 76.5573 117.844 77.0598 117.889 81.3525C117.924 84.3056 118.172 87.3219 119.556 89.9943C121.855 86.8193 121.412 81.4606 125.776 80.0163C126.059 84.3516 126.792 88.6696 128.129 92.8117C129.514 91.2202 130.793 89.5482 132.185 87.9647C134.34 85.5119 137.257 86.4801 140.315 86.7446C142.212 86.9125 144.702 86.0914 144.906 88.3235C145.087 90.2462 145.263 92.1689 145.441 94.0916C149.63 90.0737 153.795 86.0328 157.847 81.8849C160.177 79.5 160.685 81.5676 162.76 83.5248C162.401 85.659 162.034 87.7968 161.682 89.9322C159.429 89.3124 157.181 88.7041 154.912 88.1487C154.349 90.5037 153.789 92.8634 153.247 95.2231C157.812 96.7169 162.492 94.0801 167.086 95.2657C172.727 96.3029 178.338 97.5609 184.055 98.1267C181.713 99.1225 179.536 100.502 177.672 102.241C180.745 104.325 183.491 102.387 186.12 105.201C187.826 107.03 192.786 105.75 195.25 105.628C193.893 107.391 192.349 109.13 191.207 111.041C192.888 110.537 194.573 110.034 196.276 109.615C198.757 109.004 198.128 108.319 198.597 106.002C199.308 102.468 196.849 99.3871 198.459 95.652C199.931 98.1796 201.052 100.922 201.669 103.782C203.93 105.487 205.753 107.683 207.219 110.085C210.162 114.911 211.744 120.395 214.292 125.422C217.348 121.54 216.178 116.312 215.144 111.934C216.494 110.627 219.049 109.219 219.085 107.297C219.123 105.3 218.501 104.099 220.467 103.415C227.56 100.938 230.92 91.894 238.879 91.3122C237.062 93.3981 235.296 93.9708 236.893 96.2695C238.397 98.4383 237.811 100.945 236.485 103.023C235.383 104.755 232.354 106.612 232.57 108.605C232.936 112.123 232.258 113.475 230.52 116.599C229.173 119.021 227.866 121.562 227.44 124.33C227.186 126.006 227.29 127.711 227.8 129.334C226.573 130.805 225.29 132.233 223.97 133.618C221.897 135.795 220.084 137.583 217.416 138.951C215.226 140.074 215.473 140.677 213.459 138.836C211.983 137.488 210.463 136.178 208.863 134.971C209.611 138.317 212.25 140.586 214.892 142.519C217.073 144.116 219.973 141.711 222.222 140.455C226.94 137.823 231.228 134.006 230.848 128.14C232.103 128.322 233.36 128.485 234.616 128.66C237.865 129.101 236.947 130.071 236.599 133.193C236.36 135.31 236.117 137.427 236.032 139.554C237.593 141.36 239.29 143.051 240.95 144.766C239.821 142.639 238.565 140.579 237.534 138.401C238.093 136.128 239.159 134.024 239.771 131.766C238.014 127.589 233.584 125.998 229.588 124.732C232.005 120.153 235.73 116.543 235.588 111.333C235.446 106.023 242.011 102.843 245.823 99.7677C244.513 102.513 243.056 105.195 241.474 107.798C243.87 107.855 246.258 107.885 248.649 107.939C248.102 105.977 247.57 104.017 247.026 102.06C249.502 104.08 251.697 106.422 253.837 108.788C255.63 110.776 259.587 113.407 258.135 115.715C255.049 120.628 255.504 127.428 258.485 132.275C257.651 125.955 260.582 119.812 259.967 113.743C259.587 110.038 255.232 107.25 256.778 103.275C253.496 104.252 249.796 104.689 251.129 99.9896C251.653 101.184 252.172 102.381 252.696 103.581C254.187 102.348 255.67 101.102 257.165 99.8735C259.187 98.2153 260.154 98.8328 262.649 99.203C266.633 99.7941 270.608 100.53 274.496 101.588C274.255 98.5602 274.055 95.5221 273.866 92.4874C277.164 90.2887 280.683 88.3637 284.429 87.0608C288.147 85.7637 292.127 85.1014 296.059 85.6303C299.121 84.4332 302.022 81.8344 305.545 82.8544C305.06 81.3203 304.559 79.7932 304.043 78.2707C305.922 76.0685 307.811 73.8825 309.731 71.7195C311.33 72.7418 312.562 74.2309 313.01 76.095C313.56 78.4018 314.903 77.5957 317.192 77.644C316.492 79.0159 315.751 80.3716 315.04 81.7412C315.848 81.7079 316.661 81.6711 317.475 81.6377C316.228 77.9395 320.946 78.8537 323.409 78.6375C325.263 79.868 327.14 81.0766 329.036 82.2449C329.636 84.9553 330.263 87.6577 330.987 90.3382C325.299 97.0228 319.776 103.85 314.285 110.696C316.978 108.958 319.639 107.165 322.318 105.404C325.895 103.043 325.468 102.419 325.34 98.3452C327.08 99.4836 328.823 100.615 330.561 101.752C331.012 97.7863 330.665 98.2291 326.904 96.925C328.41 95.7693 329.929 94.6389 331.473 93.5408C331.61 96.3535 331.728 99.1685 331.862 101.974C334.415 101.192 336.961 100.39 339.535 99.701C340.831 99.3525 342.136 99.0443 343.449 98.7718C343.927 100.009 344.692 101.181 345.881 101.849C349.097 103.657 353.296 101.356 356.37 100.275C355.587 98.221 354.812 96.1672 354.054 94.1065C357.016 93.8512 363.827 91.5433 365.949 93.0992C369.459 95.675 371.5 99.8631 370.226 104.187C370.978 103.09 371.707 101.974 372.446 100.858C372.575 105.739 376.726 108.074 381.014 108.991C380.497 105.505 379.923 102.024 379.308 98.5499C380.725 99.1513 382.147 99.7493 383.571 100.345C385.639 101.207 385.092 99.8482 386.126 98.2957C387.883 95.6463 390.503 95.4956 393.089 97.1699C393.763 94.9287 395.103 92.5322 394.626 90.1082C394.294 88.4304 393.118 88.0406 393.089 86.2858C393.066 84.8518 393.048 83.4155 393.007 81.985C400.365 79.2596 407.211 75.7201 414.359 72.5532C414.476 73.6652 414.545 74.7841 414.628 75.8984C417.218 75.4568 424.127 76.394 425.355 74.3736C426.762 72.0645 427.907 69.5944 429.546 67.4348C431.168 65.2982 433.315 63.6423 436.047 63.3054C438.877 62.267 441.028 64.8463 443.129 66.2343C447.456 69.1034 449.81 59.2564 451.547 57.0485C452.3 56.0964 453.269 55.3685 454.417 54.9499C454.901 53.8011 455.406 52.6615 455.918 51.5254C455.266 48.8299 455.113 45.8688 458.031 44.4901C457.954 46.5623 457.861 48.639 457.747 50.7124C460.962 49.7338 464.181 48.7632 467.398 47.8134C464.589 45.0282 460.585 44.3095 456.912 43.3102C462.178 37.9986 464.325 30.1146 470.544 25.6667C473.528 23.5324 490.923 16.7247 489.406 13.1128C493.538 13.176 498.255 15.4345 501.986 12.6493C499.512 12.4952 497.045 12.3538 494.572 12.1894Z"/>
</mask>
<path d="M494.572 12.1894C496.587 6.22578 502.018 2.9105 507.227 0C507.905 3.14164 508.553 6.28557 509.099 9.45251C512.01 10.6519 514.909 11.9168 517.92 12.8782C516.511 15.0826 514.85 17.1146 513.14 19.0833C510.593 22.0099 510.219 21.9938 506.519 21.4774C504.352 21.1784 504.337 24.8916 503.87 26.7235C504.003 28.76 503.171 29.2142 501.367 28.0758C499.353 27.6101 497.334 27.1593 495.32 26.6855C496.372 28.5001 498.078 29.7237 500.039 30.3964C503.447 31.5693 503.277 31.6188 504.477 35.2928C505.649 38.8335 506.238 39.1371 503.576 41.6911C502.052 43.1596 500.628 44.8373 500.179 46.9636C503.097 44.9454 506.178 41.7854 509.746 42.1695C513.993 42.6329 518.271 42.5995 522.532 42.6674C522.515 45.3778 520.798 47.5397 519.207 49.567C517.191 52.1417 518.735 57.8316 519.087 61.0112C519.924 68.4697 521.442 75.9363 524.624 82.7807C520.582 83.0533 518.591 82.2472 517.269 86.5008C516.2 89.9426 516.027 93.6051 516.721 97.1366C515.501 96.158 514.281 95.1771 513.06 94.1985C513.507 95.8567 513.963 97.5092 514.43 99.1651C514.982 101.137 511.877 100.795 511.6 103.181C511.217 106.527 514.408 109.725 516.026 112.349C517.105 109.405 517.891 106.371 518.956 103.423C519.062 105.452 519.172 107.484 519.265 109.512C519.399 112.337 518.406 112.003 516.05 113.033C517.014 114.878 518.273 116.553 519.747 118.025C520.991 116.966 522.247 115.92 523.505 114.88C525.428 119.808 530.779 120.8 535.311 122.06C533.568 123.799 529.678 125.954 531.618 128.122C533.917 130.695 537.054 132.281 539.744 134.387C536.783 139.353 537.619 145.785 543.365 148.199C542.669 149.523 541.974 150.851 541.277 152.178C540.23 154.167 542.62 156.123 543.57 158.09C545.714 162.535 546.66 167.457 547 172.352C538.767 166.703 530.162 161.59 522.307 155.417C518.967 152.791 515.148 150.02 512.958 146.305C511.799 144.342 511.01 142.186 510.345 140.011C509.493 137.182 509.6 136.734 506.725 135.887C508.768 131.77 510.404 129.731 509.009 125.212C507.609 120.683 505.989 116.207 505.05 111.555C504.256 107.577 505.876 100.646 503.31 98.0048C501.77 96.4213 500.205 94.8586 498.645 93.297C496.527 91.1788 497.436 90.3727 498.087 87.6669C496.635 88.9272 495.249 90.2726 493.898 91.6399C498.087 95.2415 497.979 100.846 498.843 105.845C499.423 109.228 500.897 109.846 497.657 111.674C496.394 110.191 493.712 105.51 491.936 106.552C489.341 108.074 488.438 108.9 487.001 111.62C485.058 115.299 486.003 117.094 486.838 121.097C487.575 124.628 488.182 128.182 488.846 131.73C489.389 134.668 489.539 133.816 492.078 133.457C493.554 133.248 495.044 133.045 496.522 132.828C494.771 134.513 492.99 136.168 491.295 137.917C489.916 140.934 488.084 143.738 485.868 146.209C485.184 144.539 484.499 142.867 483.797 141.203C481.881 142.205 479.96 143.197 478.041 144.189C475.554 145.466 476.134 145.377 476.335 147.852C476.527 150.242 477.105 150.228 474.751 151.441C472.963 152.361 471.194 153.31 469.41 154.24C469.84 157.054 465.783 157.522 463.608 159.207C461.126 161.128 459.028 163.688 458.298 166.777C456.741 173.317 456.499 180.74 455.66 187.423C454.636 195.576 453.677 203.864 450.411 211.488C452.236 210.852 455.26 210.955 456.596 209.365C457.521 208.267 456.364 206.755 455.658 205.932C457.618 204.503 459.533 203.019 461.532 201.635C461.652 204.125 461.797 206.612 461.976 209.098C460.213 207.956 458.377 207.124 456.473 206.239C457.165 208.007 458.415 209.485 459.619 210.922C461.543 213.216 464.252 212.274 467.139 212.829C467.239 210.215 467.283 207.595 467.3 204.979C470.347 203.955 473.567 204.31 476.613 205.126C480.417 206.143 481.323 207.832 483.736 210.778C486.184 213.764 485.686 214.769 486.376 218.339C487.316 223.254 490.527 227.283 493.072 231.454C496.551 237.18 496.228 242.457 496.514 248.993C497.058 261.32 496.121 273.8 493.626 285.906C492.723 290.301 490.225 296.044 485.443 297.417C483.05 298.098 480.528 297.577 478.089 297.695C477.3 301.183 476.228 304.593 475.163 308C472.291 303.978 474.971 298.454 472.627 293.947C471.463 291.715 470.091 289.601 468.741 287.478C469.722 285.242 471.496 283.56 473.694 282.53C476.188 281.356 477.995 282.368 477.696 279.165C477.438 276.425 477.08 273.698 476.657 270.977C475.707 264.852 474.447 258.791 473.339 252.697C470.78 255.665 468.707 259.004 466.282 262.078C464.915 263.822 463.425 265.482 461.704 266.893C458.792 269.29 458.702 268.559 456.427 265.875C455.191 264.418 453.96 262.959 452.733 261.495C449.942 261.149 447.139 260.92 444.323 260.981C439.977 261.077 435.749 262.39 433 258.021C429.239 252.032 424.77 245.296 417.903 242.587C409.757 239.373 400.286 244.656 394.31 250.102C402.324 256.515 392.779 266.861 397.337 274.578C395.18 276.444 393.025 278.31 390.995 280.314C388.182 278.855 385.021 278.53 381.904 278.401C378.807 278.276 375.655 278.281 372.666 277.359C370.712 279.675 368.614 281.883 366.308 283.856C361.614 287.871 357.448 290.186 351.188 289.431C344.522 288.625 339.177 284.445 332.845 283.33C328.667 282.593 320.176 287.149 317.165 284.727C315.304 283.234 314.336 280.992 313.339 278.902C311.878 275.82 309.684 275.338 306.563 274.172C304.104 273.253 301.632 272.382 299.236 271.304C296.207 269.945 293.956 274.146 292.137 276.647C291.829 280.135 294.995 283.799 292.161 286.143C289.129 288.648 288.647 288.603 284.898 287.913C280.801 287.158 276.271 286.15 273.776 282.474C272.333 280.349 269.659 280.965 267.103 280.82C263.737 279.239 261.94 279.437 258.517 280.685C253.092 282.669 247.935 285.317 242.444 287.135C241.226 287.544 239.986 287.9 238.736 288.206C237.353 286.624 235.949 285.063 234.57 283.482C232.496 283.915 230.205 283.779 228.554 282.307C227.243 281.137 226.591 279.426 226.277 277.739C224.802 275.009 223.568 272.143 221.912 269.51C219.419 268.259 216.576 269.432 214.059 269.878C211.304 270.365 210.117 265.038 209.071 262.774C207.331 264.453 205.616 266.142 203.907 267.845C203.486 257.608 203.544 246.348 196.877 237.873C198.36 236.826 199.843 235.779 201.324 234.729C195.051 235.841 188.709 237.601 182.286 236.657C182.853 235.173 183.406 233.679 183.973 232.194C181.236 230.549 178.493 228.904 175.598 227.533C176.264 224.779 176.939 222.032 177.61 219.275C174.515 217.646 171.626 215.355 168.113 215.442C162.138 215.591 155.863 213.906 150.073 212.596C144.375 211.305 139.003 208.957 133.599 206.804C133.948 209.993 134.395 213.174 134.919 216.338C132.869 214.831 130.809 213.348 128.742 211.871C128.577 213.767 128.449 215.657 128.312 217.553C126.286 217.338 124.263 217.103 122.238 216.863C123.111 220.1 124.03 223.321 124.982 226.535C120.624 227.205 119.383 226.909 115.721 224.406C114.285 223.426 112.895 222.304 111.93 220.836C110.993 219.396 111.234 217.287 109.861 216.326C105.998 213.619 97.4264 214.724 97.1418 208.427C96.0275 208.834 94.9248 209.279 93.8105 209.684C94.9328 206.105 94.6321 202.272 93.1237 198.855C91.5278 195.237 88.5815 194.502 85.7561 191.995C83.2245 189.747 78.0634 190.454 74.731 190.412C71.5669 190.369 69.54 193.446 67.3138 195.57C67.5823 192.777 67.8347 189.985 68.1054 187.194C66.3378 187.601 64.5771 188.061 62.8245 188.529C60.6075 189.125 60.6756 189.945 59.0935 191.423C57.9711 192.469 56.6345 193.275 55.2057 193.828C52.6003 194.832 53.0682 198.183 52.6004 200.824C54.8289 202.578 55.564 205.583 54.7632 208.25C54.3657 209.563 53.6144 210.769 52.5773 211.683C50.6922 213.335 53.1903 215.567 54.3668 217.635C48.5144 216.173 42.4373 214.021 36.3267 215.208C32.924 215.873 32.2488 216.031 32.7258 219.298C33.2305 222.71 31.8582 223.66 29.6688 226.275C27.597 228.748 27.1315 230.044 26.6233 233.261C26.4021 234.672 26.1866 236.084 25.9746 237.498C25.4987 240.65 24.661 239.542 21.8829 239.389C18.6865 239.216 18.0412 239.669 17.4593 236.376C17.0249 233.91 16.9004 231.405 16.7161 228.908C16.3992 224.647 15.9083 220.065 13.0748 216.635C11.2819 214.47 10.8913 213.826 10.0432 211.053C9.18127 208.216 7.89419 205.539 6.53795 202.909C3.90384 197.817 1.3239 193.222 0.674011 187.451C-0.0438594 181.163 -0.092242 174.82 0.0898183 168.496C0.937897 169.495 1.77098 170.506 2.59025 171.53C4.35439 173.72 5.24511 172.929 7.91033 172.719C12.3247 172.368 12.0873 172.246 12.6312 167.995C15.2227 169.799 17.843 171.576 20.4517 173.365C19.4216 171.088 18.3926 168.81 17.3636 166.532C20.1487 167.313 22.9073 168.212 25.6232 169.208C28.6491 170.32 29.8175 168.362 32.3318 166.613C34.4589 165.129 37.3315 164.451 36.5745 161.746C35.9591 159.548 35.5397 157.305 35.02 155.086C34.5073 152.889 33.8885 150.703 32.8825 148.684C32.0114 146.935 29.7207 145.062 29.9961 142.962C30.2599 140.956 32.0379 139.385 33.4391 138.1C32.682 136.402 31.91 134.704 31.1391 133.011C33.1614 132.589 34.687 131.246 35.8865 129.644C37.903 126.96 37.3015 126.853 35.0719 124.513C33.4137 122.766 31.7487 121.03 30.2058 119.177C32.0299 117.033 34.059 115.072 36.0363 113.077C37.7682 114.969 38.6002 118.466 41.7678 118.325C42.8336 116.223 43.1597 113.869 43.4005 111.553C43.7416 108.237 44.3224 107.569 46.8401 105.333C48.3773 103.967 49.9109 102.588 51.2983 101.067C50.736 98.4234 50.1264 95.7912 49.4523 93.1774C48.3865 89.018 55.7761 83.749 58.7754 81.011C60.1916 82.7739 60.1121 83.8663 62.1309 82.2667C63.9999 80.7822 65.9956 79.4482 68.1504 78.4121C70.584 77.2438 72.5337 76.0111 74.6688 77.9407C76.592 79.6794 78.4357 81.5009 80.4164 83.1625C79.4865 80.3302 78.4091 78.1729 79.1604 75.2636C79.7331 73.0327 79.0832 72.9327 81.8406 73.4306C83.9608 73.8101 86.0729 74.2218 88.1954 74.5851C91.5071 75.1601 96.9367 76.7528 100.187 75.4959C102.839 74.4713 102.4 70.6811 103.202 68.5008C109.267 63.2145 116.591 59.5152 122.28 53.7804C124.34 51.7002 127.079 52.1325 129.542 50.5479C130.526 49.9132 131.302 49.0312 131.742 47.9376C132.941 44.9282 132.658 44.9558 135.994 43.439C139.441 41.8808 144.408 46.0988 147.678 47.8364C147.457 49.5682 146.526 51.1298 146.474 52.8984C146.406 55.2696 147.998 57.8593 148.372 60.2362C148.99 64.1126 148.817 68.0592 148.641 71.9598C148.507 75.0509 149.241 79.0929 146.902 81.5664C143.899 84.7414 137.862 84.4045 135 81.2192C130.168 75.8558 130.323 66.2228 130.039 59.5117C129.086 61.7518 128.261 64.0436 127.595 66.3815C127.258 67.5533 126.963 68.7423 126.71 69.9371C126.179 72.4325 124.97 72.6751 122.933 74.1252C119.506 76.5573 117.844 77.0598 117.889 81.3525C117.924 84.3056 118.172 87.3219 119.556 89.9943C121.855 86.8193 121.412 81.4606 125.776 80.0163C126.059 84.3516 126.792 88.6696 128.129 92.8117C129.514 91.2202 130.793 89.5482 132.185 87.9647C134.34 85.5119 137.257 86.4801 140.315 86.7446C142.212 86.9125 144.702 86.0914 144.906 88.3235C145.087 90.2462 145.263 92.1689 145.441 94.0916C149.63 90.0737 153.795 86.0328 157.847 81.8849C160.177 79.5 160.685 81.5676 162.76 83.5248C162.401 85.659 162.034 87.7968 161.682 89.9322C159.429 89.3124 157.181 88.7041 154.912 88.1487C154.349 90.5037 153.789 92.8634 153.247 95.2231C157.812 96.7169 162.492 94.0801 167.086 95.2657C172.727 96.3029 178.338 97.5609 184.055 98.1267C181.713 99.1225 179.536 100.502 177.672 102.241C180.745 104.325 183.491 102.387 186.12 105.201C187.826 107.03 192.786 105.75 195.25 105.628C193.893 107.391 192.349 109.13 191.207 111.041C192.888 110.537 194.573 110.034 196.276 109.615C198.757 109.004 198.128 108.319 198.597 106.002C199.308 102.468 196.849 99.3871 198.459 95.652C199.931 98.1796 201.052 100.922 201.669 103.782C203.93 105.487 205.753 107.683 207.219 110.085C210.162 114.911 211.744 120.395 214.292 125.422C217.348 121.54 216.178 116.312 215.144 111.934C216.494 110.627 219.049 109.219 219.085 107.297C219.123 105.3 218.501 104.099 220.467 103.415C227.56 100.938 230.92 91.894 238.879 91.3122C237.062 93.3981 235.296 93.9708 236.893 96.2695C238.397 98.4383 237.811 100.945 236.485 103.023C235.383 104.755 232.354 106.612 232.57 108.605C232.936 112.123 232.258 113.475 230.52 116.599C229.173 119.021 227.866 121.562 227.44 124.33C227.186 126.006 227.29 127.711 227.8 129.334C226.573 130.805 225.29 132.233 223.97 133.618C221.897 135.795 220.084 137.583 217.416 138.951C215.226 140.074 215.473 140.677 213.459 138.836C211.983 137.488 210.463 136.178 208.863 134.971C209.611 138.317 212.25 140.586 214.892 142.519C217.073 144.116 219.973 141.711 222.222 140.455C226.94 137.823 231.228 134.006 230.848 128.14C232.103 128.322 233.36 128.485 234.616 128.66C237.865 129.101 236.947 130.071 236.599 133.193C236.36 135.31 236.117 137.427 236.032 139.554C237.593 141.36 239.29 143.051 240.95 144.766C239.821 142.639 238.565 140.579 237.534 138.401C238.093 136.128 239.159 134.024 239.771 131.766C238.014 127.589 233.584 125.998 229.588 124.732C232.005 120.153 235.73 116.543 235.588 111.333C235.446 106.023 242.011 102.843 245.823 99.7677C244.513 102.513 243.056 105.195 241.474 107.798C243.87 107.855 246.258 107.885 248.649 107.939C248.102 105.977 247.57 104.017 247.026 102.06C249.502 104.08 251.697 106.422 253.837 108.788C255.63 110.776 259.587 113.407 258.135 115.715C255.049 120.628 255.504 127.428 258.485 132.275C257.651 125.955 260.582 119.812 259.967 113.743C259.587 110.038 255.232 107.25 256.778 103.275C253.496 104.252 249.796 104.689 251.129 99.9896C251.653 101.184 252.172 102.381 252.696 103.581C254.187 102.348 255.67 101.102 257.165 99.8735C259.187 98.2153 260.154 98.8328 262.649 99.203C266.633 99.7941 270.608 100.53 274.496 101.588C274.255 98.5602 274.055 95.5221 273.866 92.4874C277.164 90.2887 280.683 88.3637 284.429 87.0608C288.147 85.7637 292.127 85.1014 296.059 85.6303C299.121 84.4332 302.022 81.8344 305.545 82.8544C305.06 81.3203 304.559 79.7932 304.043 78.2707C305.922 76.0685 307.811 73.8825 309.731 71.7195C311.33 72.7418 312.562 74.2309 313.01 76.095C313.56 78.4018 314.903 77.5957 317.192 77.644C316.492 79.0159 315.751 80.3716 315.04 81.7412C315.848 81.7079 316.661 81.6711 317.475 81.6377C316.228 77.9395 320.946 78.8537 323.409 78.6375C325.263 79.868 327.14 81.0766 329.036 82.2449C329.636 84.9553 330.263 87.6577 330.987 90.3382C325.299 97.0228 319.776 103.85 314.285 110.696C316.978 108.958 319.639 107.165 322.318 105.404C325.895 103.043 325.468 102.419 325.34 98.3452C327.08 99.4836 328.823 100.615 330.561 101.752C331.012 97.7863 330.665 98.2291 326.904 96.925C328.41 95.7693 329.929 94.6389 331.473 93.5408C331.61 96.3535 331.728 99.1685 331.862 101.974C334.415 101.192 336.961 100.39 339.535 99.701C340.831 99.3525 342.136 99.0443 343.449 98.7718C343.927 100.009 344.692 101.181 345.881 101.849C349.097 103.657 353.296 101.356 356.37 100.275C355.587 98.221 354.812 96.1672 354.054 94.1065C357.016 93.8512 363.827 91.5433 365.949 93.0992C369.459 95.675 371.5 99.8631 370.226 104.187C370.978 103.09 371.707 101.974 372.446 100.858C372.575 105.739 376.726 108.074 381.014 108.991C380.497 105.505 379.923 102.024 379.308 98.5499C380.725 99.1513 382.147 99.7493 383.571 100.345C385.639 101.207 385.092 99.8482 386.126 98.2957C387.883 95.6463 390.503 95.4956 393.089 97.1699C393.763 94.9287 395.103 92.5322 394.626 90.1082C394.294 88.4304 393.118 88.0406 393.089 86.2858C393.066 84.8518 393.048 83.4155 393.007 81.985C400.365 79.2596 407.211 75.7201 414.359 72.5532C414.476 73.6652 414.545 74.7841 414.628 75.8984C417.218 75.4568 424.127 76.394 425.355 74.3736C426.762 72.0645 427.907 69.5944 429.546 67.4348C431.168 65.2982 433.315 63.6423 436.047 63.3054C438.877 62.267 441.028 64.8463 443.129 66.2343C447.456 69.1034 449.81 59.2564 451.547 57.0485C452.3 56.0964 453.269 55.3685 454.417 54.9499C454.901 53.8011 455.406 52.6615 455.918 51.5254C455.266 48.8299 455.113 45.8688 458.031 44.4901C457.954 46.5623 457.861 48.639 457.747 50.7124C460.962 49.7338 464.181 48.7632 467.398 47.8134C464.589 45.0282 460.585 44.3095 456.912 43.3102C462.178 37.9986 464.325 30.1146 470.544 25.6667C473.528 23.5324 490.923 16.7247 489.406 13.1128C493.538 13.176 498.255 15.4345 501.986 12.6493C499.512 12.4952 497.045 12.3538 494.572 12.1894Z" fill="white" stroke="#E4E4E4" stroke-width="2" mask="url(#path-1-inside-1)"/>
</svg>
