<svg width="70" height="70" viewBox="0 0 70 70" fill="none" xmlns="http://www.w3.org/2000/svg">
<g clip-path="url(#clip0)">
<path d="M60.684 26.9223L19.3402 1.43722C16.3491 -0.404242 12.7328 -0.480804 9.66629 1.23242C6.59983 2.94537 4.76917 6.06543 4.76917 9.57787V60.3158C4.76917 65.6268 9.04846 69.9708 14.308 69.9995C14.3224 69.9995 14.3367 69.9996 14.3508 69.9996C15.9945 69.9995 17.7073 69.4843 19.307 68.5082C20.5939 67.723 21.0007 66.0433 20.2155 64.7565C19.4303 63.4694 17.7503 63.0628 16.4638 63.848C15.7155 64.3043 14.9848 64.5404 14.3374 64.5403C12.353 64.5295 10.2282 62.8295 10.2282 60.316V9.578C10.2282 8.07123 11.0135 6.73316 12.3288 5.9983C13.6441 5.26343 15.1952 5.29625 16.4767 6.08525L57.8205 31.5703C59.0632 32.3354 59.7743 33.6111 59.7712 35.0704C59.7682 36.5296 59.052 37.8025 57.8025 38.565L27.9107 56.8672C26.625 57.6545 26.2209 59.3349 27.0081 60.6204C27.7952 61.9062 29.4756 62.3103 30.7613 61.5231L60.6495 43.223C63.5112 41.4772 65.2237 38.4339 65.2306 35.0814C65.2374 31.7293 63.5372 28.6788 60.684 26.9223Z" fill="white"/>
</g>
<defs>
<clipPath id="clip0">
<rect width="70" height="70" fill="white"/>
</clipPath>
</defs>
</svg>
